<svg width="200" height="200" viewBox="0 0 200 200" fill="none" xmlns="http://www.w3.org/2000/svg">
  <!-- Main brown circle -->
  <circle cx="100" cy="100" r="90" fill="#8b634d"/>
  
  <!-- Scalloped edge similar to the original -->
  <path d="
    M100,20
    C110,20 120,21 130,24
    C140,27 149,31 158,37
    C167,43 175,50 181,59
    C187,68 191,77 194,87
    C197,97 198,107 198,117
    C198,127 197,137 194,147
    C191,157 187,166 181,175
    C175,184 167,191 158,197
    C149,203 140,207 130,210
    C120,213 110,214 100,214
    C90,214 80,213 70,210
    C60,207 51,203 42,197
    C33,191 25,184 19,175
    C13,166 9,157 6,147
    C3,137 2,127 2,117
    C2,107 3,97 6,87
    C9,77 13,68 19,59
    C25,50 33,43 42,37
    C51,31 60,27 70,24
    C80,21 90,20 100,20
    Z" fill="#8b634d"/>
  
  <!-- Curved text at top -->
  <path id="topArc" d="M40,70 A60,60 0 0,1 160,70" fill="none"/>
  <text>
    <textPath href="#topArc" startOffset="50%" text-anchor="middle" font-family="Arial, sans-serif" font-size="18" font-weight="bold" fill="white">KMETIJA</textPath>
  </text>
  
  <!-- Curved text at bottom -->
  <path id="bottomArc" d="M160,130 A60,60 0 0,1 40,130" fill="none"/>
  <text>
    <textPath href="#bottomArc" startOffset="50%" text-anchor="middle" font-family="Arial, sans-serif" font-size="18" font-weight="bold" fill="white">MAROŠA</textPath>
  </text>
  
  <!-- Central M -->
  <text x="100" y="115" font-family="Arial, sans-serif" font-size="65" font-weight="bold" fill="white" text-anchor="middle">M</text>
  
  <!-- Wheat symbols on both sides of the M -->
  <g transform="translate(65, 105) scale(0.6)" fill="gold">
    <path d="M0,0 L5,-15 L10,0 M5,-15 L5,-30" stroke="gold" stroke-width="2"/>
    <path d="M-5,-5 L0,-20 L5,-5 M0,-20 L0,-35" stroke="gold" stroke-width="2"/>
    <path d="M5,-5 L10,-20 L15,-5 M10,-20 L10,-35" stroke="gold" stroke-width="2"/>
  </g>
  
  <g transform="translate(135, 105) scale(0.6) rotate(180)" fill="gold">
    <path d="M0,0 L5,-15 L10,0 M5,-15 L5,-30" stroke="gold" stroke-width="2"/>
    <path d="M-5,-5 L0,-20 L5,-5 M0,-20 L0,-35" stroke="gold" stroke-width="2"/>
    <path d="M5,-5 L10,-20 L15,-5 M10,-20 L10,-35" stroke="gold" stroke-width="2"/>
  </g>
</svg>
